# xmcd
#
# Track frame offsets: 
#        150
#        7237
#        20475
#        31087
#        45037
#        58425
#        67912
#        82650
#        95962
#        104325
#        117600
#        126862
#        140850
#        153037
#        163012
#        181350
#
# Disc length: 2705 seconds
#
# Revision: 0
# Processed by: cddbd v1.4PL0 Copyright (c) Steve Scherf et al.
# Submitted via: ExactAudioCopy v0.90b4
#
DISCID=d50a8f10
DTITLE=Preacher Jack - Return Of The Boogie Man
DYEAR=1997
DGENRE=Blues
TTITLE0=All By Myself
TTITLE1=Say You'll Stay Until Tomorrow
TTITLE2=Break-Up
TTITLE3=Yancey's Bugle Call
TTITLE4=The Public Is My Family, Music Is My Life
TTITLE5=Go Tell It On The Mountain
TTITLE6=Mystery Train
TTITLE7=Jessie's Boogie Woogie
TTITLE8=I'll Be Your Baby
TTITLE9=Who Will Buy The Wine
TTITLE10=Lovin' Up A Storm
TTITLE11=Teardrop On A Rose
TTITLE12=Rounder Boogie
TTITLE13=May You Never Be Alone Like Me
TTITLE14=Be Careful Of The Stones That You Throw
TTITLE15=Just A Closer Walk With Thee
EXTD=
EXTT0=
EXTT1=
EXTT2=
EXTT3=
EXTT4=
EXTT5=
EXTT6=
EXTT7=
EXTT8=
EXTT9=
EXTT10=
EXTT11=
EXTT12=
EXTT13=
EXTT14=
EXTT15=
PLAYORDER=
